<svg xmlns="http://www.w3.org/2000/svg" width="399.999" height="57.979" shape-rendering="auto" viewBox="0 0 105.833 15.34"><g style="fill:#fff;fill-opacity:1"><path d="M53.053 18.52 39.688 41.673l13.365 23.15h26.733l.683-1.184 12.684-21.966L79.786 18.52Zm2.735 4.736H77.05l10.632 18.416-10.632 18.415H55.788L45.155 41.672Z" style="color:#000;font-style:normal;font-variant:normal;font-weight:400;font-stretch:normal;font-size:medium;line-height:normal;font-family:sans-serif;font-variant-ligatures:normal;font-variant-position:normal;font-variant-caps:normal;font-variant-numeric:normal;font-variant-alternates:normal;font-variant-east-asian:normal;font-feature-settings:normal;font-variation-settings:normal;text-indent:0;text-align:start;text-decoration:none;text-decoration-line:none;text-decoration-style:solid;text-decoration-color:#000;letter-spacing:normal;word-spacing:normal;text-transform:none;writing-mode:lr-tb;direction:ltr;text-orientation:mixed;dominant-baseline:auto;baseline-shift:baseline;text-anchor:start;white-space:normal;shape-padding:0;shape-margin:0;inline-size:0;clip-rule:nonzero;display:inline;overflow:visible;visibility:visible;opacity:.999;isolation:auto;mix-blend-mode:normal;color-interpolation:sRGB;color-interpolation-filters:linearRGB;solid-color:#000;solid-opacity:1;vector-effect:none;fill:#fff;fill-opacity:1;fill-rule:nonzero;stroke:none;stroke-width:4.73626;stroke-linecap:square;stroke-linejoin:miter;stroke-miterlimit:2;stroke-dasharray:none;stroke-dashoffset:5.99997;stroke-opacity:1;paint-order:fill markers stroke;color-rendering:auto;image-rendering:auto;shape-rendering:auto;text-rendering:auto;enable-background:accumulate;stop-color:#000;stop-opacity:1" transform="translate(-7.626 -6.136) scale(.33131)"/><path d="M28.485 41.68 41.83 18.52l-5.452.017L23.02 41.68l13.36 23.143h5.469zM104.356 41.68 91.009 18.52l5.452.017 13.36 23.143-13.36 23.143h-5.468z" style="color:#000;font-style:normal;font-variant:normal;font-weight:400;font-stretch:normal;font-size:medium;line-height:normal;font-family:sans-serif;font-variant-ligatures:normal;font-variant-position:normal;font-variant-caps:normal;font-variant-numeric:normal;font-variant-alternates:normal;font-variant-east-asian:normal;font-feature-settings:normal;font-variation-settings:normal;text-indent:0;text-align:start;text-decoration:none;text-decoration-line:none;text-decoration-style:solid;text-decoration-color:#000;letter-spacing:normal;word-spacing:normal;text-transform:none;writing-mode:lr-tb;direction:ltr;text-orientation:mixed;dominant-baseline:auto;baseline-shift:baseline;text-anchor:start;white-space:normal;shape-padding:0;shape-margin:0;inline-size:0;clip-rule:nonzero;display:inline;overflow:visible;visibility:visible;opacity:.999;isolation:auto;mix-blend-mode:normal;color-interpolation:sRGB;color-interpolation-filters:linearRGB;solid-color:#000;solid-opacity:1;vector-effect:none;fill:#fff;fill-opacity:1;fill-rule:nonzero;stroke:none;stroke-width:4.73456;stroke-linecap:square;stroke-linejoin:miter;stroke-miterlimit:2;stroke-dasharray:none;stroke-dashoffset:5.99997;stroke-opacity:1;paint-order:fill markers stroke;color-rendering:auto;image-rendering:auto;shape-rendering:auto;text-rendering:auto;enable-background:accumulate;stop-color:#000;stop-opacity:1" transform="translate(-7.626 -6.136) scale(.33131)"/></g><g aria-label="parsagon" style="font-style:normal;font-variant:normal;font-weight:700;font-stretch:normal;font-size:15.9401px;line-height:1.25;font-family:&quot;Century Gothic&quot;;-inkscape-font-specification:&quot;Century Gothic Bold&quot;;letter-spacing:0;word-spacing:0;fill:#fff;fill-opacity:1;stroke-width:.298879"><path d="M49.247 61.96v.933q.575-.576 1.245-.864.67-.288 1.432-.288 1.658 0 2.817 1.254 1.16 1.253 1.16 3.214 0 1.891-1.198 3.168-1.2 1.269-2.841 1.269-.732 0-1.362-.257-.63-.265-1.253-.856v3.992h-2.11V61.96Zm2.233 1.743q-1.004 0-1.665.685-.662.685-.662 1.79 0 1.128.662 1.829.661.693 1.665.693.973 0 1.635-.709.67-.708.67-1.805 0-1.09-.655-1.783-.653-.7-1.65-.7zM63.918 61.96h2.117v8.468h-2.117v-.895q-.623.591-1.253.856-.623.257-1.354.257-1.643 0-2.841-1.27Q57.27 68.1 57.27 66.21q0-1.961 1.16-3.214 1.16-1.254 2.817-1.254.763 0 1.432.288.67.288 1.238.864zm-2.234 1.743q-.988 0-1.642.7-.654.693-.654 1.783 0 1.097.662 1.805.669.709 1.642.709 1.004 0 1.666-.693.661-.7.661-1.83 0-1.104-.661-1.79-.662-.684-1.674-.684zM67.685 61.96h1.821v1.066q.296-.63.786-.958.49-.327 1.075-.327.412 0 .863.218l-.661 1.83q-.374-.187-.615-.187-.49 0-.833.607-.334.607-.334 2.381l.007.413v3.425h-2.109ZM78.473 63.142l-1.316 1.316q-.801-.794-1.455-.794-.358 0-.56.156-.203.147-.203.373 0 .171.125.32.132.14.638.388l.778.39q1.23.607 1.69 1.237.458.63.458 1.479 0 1.129-.833 1.884-.825.755-2.218.755-1.852 0-2.957-1.448l1.307-1.425q.374.436.872.709.506.264.895.264.42 0 .677-.202.257-.202.257-.467 0-.49-.926-.957l-.716-.358q-2.055-1.036-2.055-2.592 0-1.004.77-1.712.779-.717 1.985-.717.825 0 1.55.366.73.358 1.237 1.035zM86.552 61.96h2.117v8.468h-2.117v-.895q-.623.591-1.253.856-.623.257-1.355.257-1.642 0-2.84-1.27-1.2-1.276-1.2-3.167 0-1.961 1.16-3.214 1.16-1.254 2.818-1.254.763 0 1.432.288.67.288 1.238.864zm-2.234 1.743q-.989 0-1.642.7-.654.693-.654 1.783 0 1.097.661 1.805.67.709 1.643.709 1.004 0 1.665-.693.662-.7.662-1.83 0-1.104-.662-1.79-.661-.684-1.673-.684zM97.075 61.96h2.117v7.253q0 2.149-.864 3.16-1.16 1.37-3.495 1.37-1.245 0-2.094-.311-.848-.311-1.432-.919-.584-.599-.864-1.463h2.343q.311.358.802.537.49.187 1.16.187.856 0 1.377-.265.522-.264.732-.684.218-.42.218-1.448-.56.56-1.176.81-.615.24-1.393.24-1.704 0-2.88-1.23-1.175-1.229-1.175-3.112 0-2.016 1.245-3.238 1.129-1.106 2.693-1.106.732 0 1.378.273.654.265 1.308.88zm-2.203 1.766q-1.004 0-1.658.677-.654.67-.654 1.69 0 1.058.67 1.735.669.677 1.68.677.99 0 1.628-.661.646-.662.646-1.736 0-1.059-.646-1.72-.646-.662-1.666-.662zM105.317 61.741q1.199 0 2.25.6 1.058.6 1.65 1.626.591 1.028.591 2.219 0 1.198-.6 2.241-.59 1.043-1.618 1.635-1.028.584-2.265.584-1.821 0-3.113-1.293-1.285-1.3-1.285-3.152 0-1.984 1.456-3.308 1.276-1.152 2.934-1.152zm.031 2q-.988 0-1.65.693-.654.685-.654 1.76 0 1.105.646 1.79.654.685 1.65.685.997 0 1.658-.693.662-.693.662-1.783 0-1.09-.654-1.766-.646-.685-1.658-.685zM111.551 61.96h2.117v.863q.724-.607 1.308-.84.592-.242 1.206-.242 1.261 0 2.14.88.74.747.74 2.21v5.597h-2.101v-3.713q0-1.518-.14-2.016-.133-.498-.475-.755-.335-.265-.833-.265-.646 0-1.113.436-.46.428-.638 1.191-.094.397-.094 1.72v3.402h-2.117z" style="font-style:normal;font-variant:normal;font-weight:700;font-stretch:normal;font-size:15.9401px;font-family:&quot;Century Gothic&quot;;-inkscape-font-specification:&quot;Century Gothic Bold&quot;;fill:#fff;fill-opacity:1;stroke-width:.298879" transform="translate(-13.23 -58.476)"/></g></svg>