<svg xmlns="http://www.w3.org/2000/svg" xmlns:xlink="http://www.w3.org/1999/xlink" width="399.554" height="57.726" viewBox="0 0 105.715 15.273"><defs><linearGradient xlink:href="#a" id="b" x1="143.084" x2="248.265" y1="315.626" y2="330.46" gradientUnits="userSpaceOnUse"/><linearGradient id="a"><stop offset="0" style="stop-color:#006ef5;stop-opacity:1"/><stop offset="1" style="stop-color:#33b1ff;stop-opacity:1"/></linearGradient><linearGradient xlink:href="#a" id="c" x1="143.084" x2="248.265" y1="315.626" y2="330.46" gradientUnits="userSpaceOnUse"/><linearGradient xlink:href="#a" id="d" x1="143.084" x2="248.265" y1="315.626" y2="330.46" gradientUnits="userSpaceOnUse"/><linearGradient xlink:href="#a" id="e" x1="143.084" x2="248.265" y1="315.626" y2="330.46" gradientUnits="userSpaceOnUse"/><linearGradient xlink:href="#a" id="f" x1="143.084" x2="248.265" y1="315.626" y2="330.46" gradientUnits="userSpaceOnUse"/><linearGradient xlink:href="#a" id="g" x1="143.084" x2="248.265" y1="315.626" y2="330.46" gradientUnits="userSpaceOnUse"/><linearGradient xlink:href="#a" id="h" x1="143.084" x2="248.265" y1="315.626" y2="330.46" gradientUnits="userSpaceOnUse"/><linearGradient xlink:href="#a" id="i" x1="143.084" x2="248.265" y1="315.626" y2="330.46" gradientUnits="userSpaceOnUse"/><linearGradient xlink:href="#a" id="j" x1="143.084" x2="248.265" y1="315.626" y2="330.46" gradientUnits="userSpaceOnUse"/><linearGradient xlink:href="#a" id="k" x1="143.084" x2="248.265" y1="315.626" y2="330.46" gradientUnits="userSpaceOnUse"/><linearGradient xlink:href="#a" id="l" x1="143.084" x2="248.265" y1="315.626" y2="330.46" gradientUnits="userSpaceOnUse"/><linearGradient xlink:href="#a" id="m" x1="143.084" x2="248.265" y1="315.626" y2="330.46" gradientUnits="userSpaceOnUse"/></defs><g style="display:inline;fill:url(#b);fill-opacity:1" transform="translate(-142.683 -315.206)"><path d="m152.59 315.206-4.408 7.637 4.409 7.636h8.818l.225-.39 4.184-7.246-4.41-7.637zm.903 1.562h7.014l3.507 6.075-3.507 6.074h-7.014l-3.508-6.074z" style="color:#000;font-style:normal;font-variant:normal;font-weight:400;font-stretch:normal;font-size:medium;line-height:normal;font-family:sans-serif;font-variant-ligatures:normal;font-variant-position:normal;font-variant-caps:normal;font-variant-numeric:normal;font-variant-alternates:normal;font-variant-east-asian:normal;font-feature-settings:normal;font-variation-settings:normal;text-indent:0;text-align:start;text-decoration:none;text-decoration-line:none;text-decoration-style:solid;text-decoration-color:#000;letter-spacing:normal;word-spacing:normal;text-transform:none;writing-mode:lr-tb;direction:ltr;text-orientation:mixed;dominant-baseline:auto;baseline-shift:baseline;text-anchor:start;white-space:normal;shape-padding:0;shape-margin:0;inline-size:0;clip-rule:nonzero;display:inline;overflow:visible;visibility:visible;opacity:.999;isolation:auto;mix-blend-mode:normal;color-interpolation:sRGB;color-interpolation-filters:linearRGB;solid-color:#000;solid-opacity:1;vector-effect:none;fill:url(#c);fill-opacity:1;fill-rule:nonzero;stroke:none;stroke-width:1.56231;stroke-linecap:square;stroke-linejoin:miter;stroke-miterlimit:2;stroke-dasharray:none;stroke-dashoffset:5.99997;stroke-opacity:1;paint-order:fill markers stroke;color-rendering:auto;image-rendering:auto;shape-rendering:auto;text-rendering:auto;enable-background:accumulate;stop-color:#000"/><path d="m144.486 322.845 4.403-7.639-1.798.005-4.408 7.634 4.408 7.634h1.803z" style="color:#000;font-style:normal;font-variant:normal;font-weight:400;font-stretch:normal;font-size:medium;line-height:normal;font-family:sans-serif;font-variant-ligatures:normal;font-variant-position:normal;font-variant-caps:normal;font-variant-numeric:normal;font-variant-alternates:normal;font-variant-east-asian:normal;font-feature-settings:normal;font-variation-settings:normal;text-indent:0;text-align:start;text-decoration:none;text-decoration-line:none;text-decoration-style:solid;text-decoration-color:#000;letter-spacing:normal;word-spacing:normal;text-transform:none;writing-mode:lr-tb;direction:ltr;text-orientation:mixed;dominant-baseline:auto;baseline-shift:baseline;text-anchor:start;white-space:normal;shape-padding:0;shape-margin:0;inline-size:0;clip-rule:nonzero;display:inline;overflow:visible;visibility:visible;opacity:.999;isolation:auto;mix-blend-mode:normal;color-interpolation:sRGB;color-interpolation-filters:linearRGB;solid-color:#000;solid-opacity:1;vector-effect:none;fill:url(#d);fill-opacity:1;fill-rule:nonzero;stroke:none;stroke-width:1.56175;stroke-linecap:square;stroke-linejoin:miter;stroke-miterlimit:2;stroke-dasharray:none;stroke-dashoffset:5.99997;stroke-opacity:1;paint-order:fill markers stroke;color-rendering:auto;image-rendering:auto;shape-rendering:auto;text-rendering:auto;enable-background:accumulate;stop-color:#000"/><path d="m169.514 322.845-4.403-7.639 1.798.005 4.408 7.634-4.408 7.634h-1.804z" style="color:#000;font-style:normal;font-variant:normal;font-weight:400;font-stretch:normal;font-size:medium;line-height:normal;font-family:sans-serif;font-variant-ligatures:normal;font-variant-position:normal;font-variant-caps:normal;font-variant-numeric:normal;font-variant-alternates:normal;font-variant-east-asian:normal;font-feature-settings:normal;font-variation-settings:normal;text-indent:0;text-align:start;text-decoration:none;text-decoration-line:none;text-decoration-style:solid;text-decoration-color:#000;letter-spacing:normal;word-spacing:normal;text-transform:none;writing-mode:lr-tb;direction:ltr;text-orientation:mixed;dominant-baseline:auto;baseline-shift:baseline;text-anchor:start;white-space:normal;shape-padding:0;shape-margin:0;inline-size:0;clip-rule:nonzero;display:inline;overflow:visible;visibility:visible;opacity:.999;isolation:auto;mix-blend-mode:normal;color-interpolation:sRGB;color-interpolation-filters:linearRGB;solid-color:#000;solid-opacity:1;vector-effect:none;fill:url(#e);fill-opacity:1;fill-rule:nonzero;stroke:none;stroke-width:1.56175;stroke-linecap:square;stroke-linejoin:miter;stroke-miterlimit:2;stroke-dasharray:none;stroke-dashoffset:5.99997;stroke-opacity:1;paint-order:fill markers stroke;color-rendering:auto;image-rendering:auto;shape-rendering:auto;text-rendering:auto;enable-background:accumulate;stop-color:#000"/><path d="M178.583 318.656v.934q.576-.576 1.245-.864.67-.288 1.432-.288 1.658 0 2.818 1.253 1.16 1.254 1.16 3.215 0 1.891-1.199 3.168-1.199 1.268-2.84 1.268-.732 0-1.363-.256-.63-.265-1.253-.857v3.993h-2.11v-11.566zm2.234 1.744q-1.004 0-1.666.685-.661.685-.661 1.79 0 1.128.661 1.829.662.693 1.666.693.973 0 1.634-.709.67-.708.67-1.805 0-1.09-.654-1.783-.654-.7-1.65-.7z" style="font-style:normal;font-variant:normal;font-weight:700;font-stretch:normal;font-size:15.9401px;line-height:1.25;font-family:&quot;Century Gothic&quot;;-inkscape-font-specification:&quot;Century Gothic Bold&quot;;letter-spacing:0;word-spacing:0;fill:url(#f);fill-opacity:1;stroke-width:.298879"/><path d="M193.254 318.656h2.118v8.468h-2.118v-.895q-.622.592-1.253.857-.622.256-1.354.256-1.642 0-2.84-1.268-1.2-1.277-1.2-3.168 0-1.961 1.16-3.215 1.16-1.253 2.818-1.253.763 0 1.432.288.67.288 1.237.864zm-2.233 1.744q-.989 0-1.643.7-.653.693-.653 1.783 0 1.097.661 1.805.67.709 1.642.709 1.005 0 1.666-.693.662-.7.662-1.83 0-1.104-.662-1.79-.661-.684-1.673-.684z" style="font-style:normal;font-variant:normal;font-weight:700;font-stretch:normal;font-size:15.9401px;line-height:1.25;font-family:&quot;Century Gothic&quot;;-inkscape-font-specification:&quot;Century Gothic Bold&quot;;letter-spacing:0;word-spacing:0;fill:url(#g);fill-opacity:1;stroke-width:.298879"/><path d="M197.022 318.656h1.82v1.067q.297-.63.787-.958.49-.327 1.074-.327.413 0 .864.218l-.662 1.83q-.373-.187-.614-.187-.49 0-.833.607-.335.607-.335 2.381l.008.413v3.424h-2.11z" style="font-style:normal;font-variant:normal;font-weight:700;font-stretch:normal;font-size:15.9401px;line-height:1.25;font-family:&quot;Century Gothic&quot;;-inkscape-font-specification:&quot;Century Gothic Bold&quot;;letter-spacing:0;word-spacing:0;fill:url(#h);fill-opacity:1;stroke-width:.298879"/><path d="m207.81 319.84-1.316 1.315q-.802-.794-1.456-.794-.358 0-.56.155-.202.148-.202.374 0 .171.124.32.132.14.638.388l.779.39q1.23.607 1.689 1.237.459.63.459 1.479 0 1.128-.833 1.883-.825.755-2.218.755-1.853 0-2.958-1.447l1.308-1.425q.373.436.871.709.506.264.896.264.42 0 .677-.202.257-.202.257-.467 0-.49-.927-.957l-.716-.358q-2.055-1.036-2.055-2.592 0-1.004.771-1.713.778-.716 1.985-.716.825 0 1.549.366.731.358 1.237 1.035z" style="font-style:normal;font-variant:normal;font-weight:700;font-stretch:normal;font-size:15.9401px;line-height:1.25;font-family:&quot;Century Gothic&quot;;-inkscape-font-specification:&quot;Century Gothic Bold&quot;;letter-spacing:0;word-spacing:0;fill:url(#i);fill-opacity:1;stroke-width:.298879"/><path d="M215.888 318.656h2.117v8.468h-2.117v-.895q-.622.592-1.253.857-.623.256-1.354.256-1.642 0-2.841-1.268-1.199-1.277-1.199-3.168 0-1.961 1.16-3.215 1.16-1.253 2.818-1.253.762 0 1.432.288.669.288 1.237.864zm-2.234 1.744q-.988 0-1.642.7-.654.693-.654 1.783 0 1.097.662 1.805.67.709 1.642.709 1.004 0 1.666-.693.661-.7.661-1.83 0-1.104-.661-1.79-.662-.684-1.674-.684z" style="font-style:normal;font-variant:normal;font-weight:700;font-stretch:normal;font-size:15.9401px;line-height:1.25;font-family:&quot;Century Gothic&quot;;-inkscape-font-specification:&quot;Century Gothic Bold&quot;;letter-spacing:0;word-spacing:0;fill:url(#j);fill-opacity:1;stroke-width:.298879"/><path d="M226.411 318.656h2.117v7.254q0 2.148-.864 3.16-1.16 1.37-3.494 1.37-1.246 0-2.094-.311-.849-.312-1.432-.919-.584-.599-.864-1.463h2.343q.31.358.801.537.49.187 1.16.187.856 0 1.378-.265.521-.264.731-.685.218-.42.218-1.447-.56.56-1.175.81-.615.24-1.393.24-1.705 0-2.88-1.23-1.175-1.23-1.175-3.113 0-2.015 1.245-3.237 1.128-1.106 2.693-1.106.732 0 1.378.273.653.264 1.307.88zm-2.203 1.767q-1.004 0-1.657.677-.654.67-.654 1.69 0 1.058.67 1.735.669.677 1.68.677.989 0 1.627-.662.646-.661.646-1.735 0-1.059-.646-1.72-.646-.662-1.666-.662z" style="font-style:normal;font-variant:normal;font-weight:700;font-stretch:normal;font-size:15.9401px;line-height:1.25;font-family:&quot;Century Gothic&quot;;-inkscape-font-specification:&quot;Century Gothic Bold&quot;;letter-spacing:0;word-spacing:0;fill:url(#k);fill-opacity:1;stroke-width:.298879"/><path d="M234.654 318.438q1.198 0 2.249.6 1.058.599 1.65 1.626.592 1.028.592 2.219 0 1.198-.6 2.241-.591 1.043-1.619 1.635-1.027.583-2.265.583-1.82 0-3.113-1.292-1.284-1.3-1.284-3.152 0-1.985 1.455-3.308 1.277-1.152 2.935-1.152zm.03 2q-.988 0-1.65.693-.653.685-.653 1.76 0 1.105.646 1.79.654.684 1.65.684.996 0 1.658-.692.661-.693.661-1.783 0-1.09-.653-1.766-.646-.685-1.658-.685z" style="font-style:normal;font-variant:normal;font-weight:700;font-stretch:normal;font-size:15.9401px;line-height:1.25;font-family:&quot;Century Gothic&quot;;-inkscape-font-specification:&quot;Century Gothic Bold&quot;;letter-spacing:0;word-spacing:0;fill:url(#l);fill-opacity:1;stroke-width:.298879"/><path d="M240.888 318.656h2.117v.864q.724-.607 1.308-.84.591-.242 1.206-.242 1.26 0 2.14.88.74.747.74 2.21v5.596h-2.102v-3.712q0-1.518-.14-2.016-.132-.498-.475-.755-.334-.265-.832-.265-.646 0-1.113.436-.46.428-.639 1.191-.093.397-.093 1.72v3.401h-2.117z" style="font-style:normal;font-variant:normal;font-weight:700;font-stretch:normal;font-size:15.9401px;line-height:1.25;font-family:&quot;Century Gothic&quot;;-inkscape-font-specification:&quot;Century Gothic Bold&quot;;letter-spacing:0;word-spacing:0;fill:url(#m);fill-opacity:1;stroke-width:.298879"/></g></svg>